<svg width="124" height="64" viewBox="0 0 124 64" fill="none" xmlns="http://www.w3.org/2000/svg">
<path fill-rule="evenodd" clip-rule="evenodd" d="M111.561 0.840572C111.46 1.08628 111.359 1.33206 111.252 1.57523C111.198 1.69878 111.147 1.82381 111.096 1.94883C110.987 2.21436 110.879 2.4798 110.741 2.7308C109.709 4.72769 108.659 6.71345 107.608 8.69969C107.076 9.70598 106.544 10.7124 106.014 11.7204C105.444 11.7212 104.874 11.721 104.305 11.7207C104.02 11.7206 103.735 11.7204 103.45 11.7204C102.955 11.7146 102.459 11.7172 101.963 11.7199C101.237 11.7238 100.511 11.7277 99.7852 11.7048C99.9906 11.8183 100.208 11.9058 100.424 11.9934C100.628 12.0756 100.832 12.1579 101.026 12.2615C101.167 12.3364 101.308 12.4107 101.45 12.485C101.67 12.6005 101.89 12.7161 102.108 12.8339C102.463 13.0538 102.816 13.2757 103.169 13.4975C103.903 13.9585 104.637 14.4196 105.381 14.8637C106.901 15.7484 108.469 16.5403 110.037 17.332C110.306 17.4678 110.575 17.6037 110.844 17.74C110.845 19.3008 110.845 20.8616 110.84 22.4224C110.839 22.5947 110.843 22.7674 110.846 22.94C110.854 23.2938 110.862 23.6477 110.824 24C110.894 23.9099 110.941 23.805 110.988 23.7012L110.998 23.6801C111.128 23.4136 111.258 23.1465 111.388 22.8794C111.538 22.5681 111.689 22.2568 111.842 21.9462C111.982 21.7204 112.105 21.485 112.228 21.2495C112.294 21.1225 112.361 20.9955 112.43 20.87C113.149 19.4973 113.873 18.1277 114.598 16.7581C115.292 15.4474 115.985 14.1367 116.674 12.8231C117.475 12.8254 118.276 12.8247 119.077 12.8241C120.396 12.823 121.716 12.8219 123.035 12.8339C122.663 12.6409 122.287 12.457 121.91 12.2732C121.482 12.0642 121.054 11.8552 120.633 11.6326C119.972 11.2558 119.307 10.8846 118.643 10.5136C118.088 10.2038 117.534 9.89416 116.981 9.58124C116.282 9.19093 115.585 8.79651 114.888 8.40206C113.897 7.84136 112.906 7.28058 111.909 6.7314C111.912 5.84197 111.911 4.95254 111.909 4.06311C111.908 2.70874 111.906 1.35437 111.918 0C111.794 0.277418 111.678 0.558952 111.561 0.840572ZM110.849 11.724C109.639 11.7204 108.429 11.7192 107.219 11.724C108.431 9.43093 109.633 7.13182 110.821 4.82429C110.844 6.86795 110.846 8.91257 110.848 10.9573C110.848 11.2129 110.848 11.4685 110.849 11.724ZM111.91 11.724V7.96994C112.442 8.28526 112.981 8.58696 113.521 8.88844C113.814 9.05259 114.108 9.21667 114.4 9.38284C115.068 9.76133 115.737 10.1354 116.407 10.5094C117.129 10.9125 117.85 11.3155 118.569 11.724C116.35 11.7192 114.129 11.7192 111.91 11.724ZM108.389 15.1294C106.996 14.3562 105.601 13.5867 104.201 12.8255C105.783 12.8229 107.365 12.8234 108.947 12.8239C109.58 12.8241 110.213 12.8243 110.846 12.8243C110.846 13.1742 110.846 13.5242 110.846 13.8742C110.845 14.75 110.844 15.626 110.849 16.5014C110.353 16.2119 109.85 15.9358 109.347 15.6598C109.027 15.4841 108.707 15.3085 108.389 15.1294ZM111.911 14.5007C111.911 13.942 111.911 13.3832 111.911 12.8243C112.505 12.8237 113.099 12.8237 113.694 12.8237C114.288 12.8237 114.883 12.8237 115.477 12.8231C115.397 12.9327 115.336 13.0557 115.275 13.1785C115.246 13.2361 115.218 13.2937 115.187 13.3498C114.495 14.6454 113.811 15.9458 113.127 17.2461C112.722 18.0143 112.318 18.7825 111.912 19.5497C111.911 17.8668 111.911 16.184 111.911 14.5007ZM52.644 15.584C53.4636 14.7604 54.422 14.3486 55.5193 14.3486C56.6167 14.3486 57.5682 14.7604 58.3738 15.584C59.1795 16.4076 59.5823 17.3732 59.5823 18.4807C59.5823 19.6167 59.1795 20.6036 58.3738 21.4414C57.5682 22.2649 56.6167 22.6767 55.5193 22.6767C54.4081 22.6767 53.4427 22.2578 52.6232 21.4201C51.8176 20.5823 51.4147 19.6025 51.4147 18.4807C51.4147 17.3732 51.8245 16.4076 52.644 15.584ZM52.0606 25.0197H58.8947V46.5322H52.0606V25.0197ZM20.023 42.0806L21.6482 46.5322H29.4407L17.5852 15.9887H11.8138L0 46.5322H7.64666L9.31351 42.0806H20.023ZM17.7103 35.7972H11.6471L14.6891 27.5969L17.7103 35.7972ZM42.8238 46.5322L51.4289 25.0197H43.9281L39.9068 36.9261L35.823 25.0197H28.3847L37.0107 46.5322H42.8238ZM71.2569 24.5937C68.1593 24.5937 65.5688 25.6658 63.4852 27.8099C61.4155 29.9399 60.3807 32.6165 60.3807 35.8398C60.3807 39.0205 61.4155 41.6688 63.4852 43.7845C65.5688 45.9003 68.1593 46.9581 71.2569 46.9581C73.2988 46.9581 75.1531 46.4825 76.82 45.5311C78.4868 44.5655 79.7995 43.2307 80.7579 41.5268C81.7163 39.8228 82.1956 37.9272 82.1956 35.8398C82.1956 32.6307 81.1468 29.9541 79.0494 27.8099C76.9519 25.6658 74.3544 24.5937 71.2569 24.5937ZM68.2774 32.6023C69.0691 31.7361 70.0623 31.303 71.2569 31.303C72.4792 31.303 73.4863 31.7361 74.278 32.6023C75.0837 33.4543 75.4865 34.5334 75.4865 35.8398C75.4865 37.1036 75.0837 38.1544 74.278 38.9921C73.4863 39.8299 72.4792 40.2488 71.2569 40.2488C70.0623 40.2488 69.0691 39.8299 68.2774 38.9921C67.4856 38.1544 67.0898 37.1036 67.0898 35.8398C67.0898 34.5334 67.4856 33.4543 68.2774 32.6023ZM95.8287 24.5937C98.4957 24.5937 100.579 25.467 102.079 27.2135C103.593 28.9601 104.35 31.374 104.35 34.4553V46.5322H97.4955V35.6268C97.4955 34.3347 97.19 33.3478 96.5788 32.6662C95.9676 31.9704 95.1203 31.6225 94.0368 31.6225C93.3701 31.6225 92.7173 31.8071 92.0783 32.1763C91.4393 32.5455 90.9254 33.0283 90.5365 33.6247V46.5322H83.7024V25.0197H90.5365V27.3839C91.106 26.5177 91.863 25.8362 92.8075 25.3392C93.7521 24.8422 94.7591 24.5937 95.8287 24.5937ZM0 61.8832V53.5654H2.50115C4.04838 53.5654 5.1768 54.0773 5.1768 55.7176V55.7641C5.1768 56.5203 4.87434 57.195 3.92041 57.5207C5.13027 57.8116 5.58397 58.4281 5.58397 59.51V59.5566C5.58397 61.1271 4.51371 61.8832 2.85015 61.8832H0ZM0.988831 61.0922H2.82688C4.03674 61.0922 4.59515 60.557 4.59515 59.5449V59.4984C4.59515 58.4747 4.02512 57.9861 2.68729 57.9861H0.988831V61.0922ZM0.988831 57.195H2.50115C3.72265 57.195 4.18798 56.7529 4.18798 55.7292V55.6827C4.18798 54.7404 3.64121 54.3565 2.47789 54.3565H0.988831V57.195ZM7.65688 64.0005L8.80856 61.255L6.42374 55.799H7.45911L9.32043 60.1615L11.0073 55.799H11.9961L8.63406 64.0005H7.65688ZM16.4161 53.5654V61.8832H17.3817V54.752L21.5813 61.8832H22.7446V53.5654H21.779V60.4407L17.7307 53.5654H16.4161ZM27.254 61.9879C25.5323 61.9879 24.3108 60.7781 24.3108 58.9051V58.812C24.3108 56.974 25.4858 55.6943 27.161 55.6943C28.5686 55.6943 29.8948 56.5435 29.8948 58.719V59.0331H25.3113C25.3578 60.4174 26.0209 61.1852 27.2657 61.1852C28.208 61.1852 28.7547 60.8362 28.8827 60.1266H29.8483C29.6389 61.3481 28.6268 61.9879 27.254 61.9879ZM25.3462 58.2536H28.906C28.8129 56.9972 28.1614 56.497 27.161 56.497C26.1721 56.497 25.509 57.1717 25.3462 58.2536ZM31.5858 60.3593C31.5858 61.3132 32.1209 61.9647 33.2261 61.9647C33.6216 61.9647 33.8543 61.9065 34.052 61.8367V61.0224C33.8427 61.1038 33.61 61.1503 33.3075 61.1503C32.8189 61.1503 32.5513 60.8595 32.5513 60.2662V56.6133H33.9706V55.799H32.5513V54.4147H31.5858V55.799H30.7133V56.6133H31.5858V60.3593ZM38.0361 61.9879C36.3376 61.9879 35.058 60.7897 35.058 58.9051V58.812C35.058 56.9507 36.3842 55.6943 38.0128 55.6943C39.2808 55.6943 40.4674 56.276 40.6536 57.8232H39.6996C39.5484 56.8576 38.8504 56.497 38.0128 56.497C36.9077 56.497 36.0584 57.3811 36.0584 58.812V58.9051C36.0584 60.3942 36.8727 61.1852 38.0477 61.1852C38.9086 61.1852 39.688 60.685 39.7927 59.6962H40.6885C40.5605 61.0107 39.5019 61.9879 38.0361 61.9879ZM46.6716 58.8935C46.6716 60.2662 45.9038 61.1852 44.6823 61.1852C43.4492 61.1852 42.693 60.2778 42.693 58.8935V58.8004C42.693 57.4044 43.4608 56.497 44.6823 56.497C45.8922 56.497 46.6716 57.4044 46.6716 58.812V58.8935ZM41.6926 58.8935C41.6926 60.6734 42.9373 61.9879 44.6707 61.9879C46.404 61.9879 47.6721 60.7199 47.6721 58.8818V58.7888C47.6721 56.9623 46.404 55.6943 44.6823 55.6943C42.9606 55.6943 41.6926 56.974 41.6926 58.8004V58.8935ZM49.1671 61.8832V55.799H50.1327V56.7646C50.4119 56.1945 51.0866 55.6943 52.0871 55.6943C53.3435 55.6943 54.2276 56.3807 54.2276 58.1489V61.8832H53.262V58.0791C53.262 57.0089 52.8083 56.5319 51.8311 56.5319C50.9354 56.5319 50.1327 57.1019 50.1327 58.1955V61.8832H49.1671Z" fill="white"/>
</svg>
